<?xml version="1.0" standalone="no"?>
<!DOCTYPE svg PUBLIC "-//W3C//DTD SVG 20010904//EN"
 "http://www.w3.org/TR/2001/REC-SVG-20010904/DTD/svg10.dtd">
<svg version="1.0" xmlns="http://www.w3.org/2000/svg"
 width="2816.000000pt" height="1536.000000pt" viewBox="0 0 2816.000000 1536.000000"
 preserveAspectRatio="xMidYMid meet">

<g transform="translate(0.000000,1536.000000) scale(0.100000,-0.100000)"
fill="#000000" stroke="none">
<path d="M8093 14393 c197 -2 517 -2 710 0 194 1 33 2 -358 2 -390 0 -549 -1
-352 -2z"/>
<path d="M19363 14393 c196 -2 518 -2 715 0 196 1 35 2 -358 2 -393 0 -554 -1
-357 -2z"/>
<path d="M6773 13663 c9 -2 23 -2 30 0 6 3 -1 5 -18 5 -16 0 -22 -2 -12 -5z"/>
<path d="M6978 13663 c84 -2 219 -2 300 0 81 1 12 3 -153 3 -165 0 -231 -2
-147 -3z"/>
<path d="M20742 13665 c6 -7 659 -7 666 0 3 3 -147 5 -333 5 -186 0 -336 -2
-333 -5z"/>
<path d="M7042 13530 c0 -14 2 -19 5 -12 2 6 2 18 0 25 -3 6 -5 1 -5 -13z"/>
<path d="M7041 13414 c0 -11 3 -14 6 -6 3 7 2 16 -1 19 -3 4 -6 -2 -5 -13z"/>
<path d="M7042 13310 c0 -19 2 -27 5 -17 2 9 2 25 0 35 -3 9 -5 1 -5 -18z"/>
<path d="M7043 12565 c0 -33 2 -45 4 -27 2 18 2 45 0 60 -2 15 -4 0 -4 -33z"/>
<path d="M13838 12611 c-38 -4 -70 -10 -73 -12 -2 -3 -26 -83 -52 -178 l-48
-173 -95 -33 c-133 -45 -248 -92 -297 -121 -23 -13 -48 -24 -57 -24 -8 0 -83
43 -168 95 -84 52 -156 95 -159 95 -3 0 -55 -42 -115 -93 -97 -83 -140 -128
-240 -246 l-27 -32 78 -158 77 -158 -55 -92 c-31 -51 -75 -143 -99 -203 -25
-65 -51 -116 -63 -123 -11 -7 -82 -27 -158 -45 -75 -17 -144 -38 -152 -47 -8
-8 -15 -26 -15 -41 -1 -15 -5 -88 -10 -162 -6 -74 -7 -181 -4 -237 l7 -102 66
-22 c36 -12 101 -35 143 -51 76 -29 78 -31 88 -71 26 -109 55 -200 92 -292 80
-200 77 -169 30 -260 -23 -44 -55 -102 -71 -130 l-29 -50 186 -197 185 -197
47 24 c26 13 74 40 106 59 32 20 69 36 81 36 12 0 51 -18 85 -41 99 -64 250
-133 413 -189 83 -28 155 -56 161 -63 6 -7 19 -41 28 -77 10 -36 24 -86 32
-112 l16 -48 258 0 258 0 16 40 c9 23 25 73 36 112 16 57 17 74 7 88 -7 9 -73
80 -147 157 l-135 140 -109 7 c-344 21 -650 160 -897 407 -164 164 -291 417
-334 663 -19 114 -19 309 0 422 71 402 338 751 722 943 180 90 337 122 598
123 238 1 395 -34 587 -130 146 -74 233 -137 344 -247 185 -184 311 -418 360
-669 50 -259 16 -551 -92 -774 l-45 -93 50 -57 c93 -107 340 -344 353 -340 19
7 13 29 -48 167 l-55 123 50 127 c53 138 72 193 96 291 9 36 21 70 27 77 5 6
66 31 134 53 108 36 127 46 135 69 22 58 10 492 -15 525 -6 9 -62 26 -136 42
-69 14 -140 32 -158 40 -34 14 -36 18 -86 150 -14 39 -49 111 -77 159 -31 54
-51 101 -51 120 0 18 27 84 66 162 36 71 66 138 66 147 0 45 -341 366 -389
366 -8 0 -73 -38 -145 -84 -72 -47 -138 -88 -147 -91 -9 -3 -57 14 -110 40
-52 25 -152 64 -224 87 -71 22 -134 44 -138 48 -4 4 -23 65 -42 136 -54 206
-53 204 -83 215 -34 13 -344 20 -434 10z"/>
<path d="M21114 12385 c0 -49 1 -71 3 -48 2 23 2 64 0 90 -2 26 -3 8 -3 -42z"/>
<path d="M13809 11655 c-209 -39 -393 -139 -540 -292 -131 -137 -206 -268
-255 -449 -24 -89 -27 -117 -27 -264 -1 -152 1 -172 27 -255 127 -415 479
-699 908 -731 l93 -7 129 -136 c72 -75 212 -219 311 -321 99 -102 207 -217
241 -255 l61 -70 179 -3 c146 -3 182 -6 196 -19 10 -9 18 -23 18 -31 0 -12 -3
-11 -14 4 -8 10 -18 15 -23 11 -4 -4 -238 -237 -518 -518 l-511 -510 -538 535
-538 535 -144 3 -144 3 -2 -490 -3 -490 -145 -6 c-126 -5 -154 -9 -215 -33
-144 -56 -226 -112 -407 -279 -68 -63 -133 -119 -146 -126 -12 -6 -95 -21
-184 -32 -212 -26 -276 -42 -360 -86 -76 -40 -124 -89 -137 -143 -5 -19 -12
-93 -16 -165 -5 -113 -9 -132 -26 -144 -16 -11 -19 -25 -19 -82 l0 -69 170 0
170 0 25 -56 c33 -76 117 -157 186 -179 121 -41 261 -14 338 64 46 46 57 64
85 134 l15 37 333 -2 333 -3 3 -206 2 -206 58 -5 c31 -3 157 -6 280 -7 l222
-1 0 733 c0 404 3 737 6 740 4 4 138 -126 298 -287 l291 -294 88 -26 c72 -22
96 -35 134 -71 l46 -44 286 285 c157 157 296 287 309 291 31 7 232 -91 382
-186 175 -112 208 -126 360 -151 179 -29 352 -67 415 -92 109 -43 158 -112
170 -244 l7 -71 -113 4 c-62 2 -118 8 -125 14 -7 6 -26 34 -43 63 -78 139
-245 196 -401 137 -74 -28 -114 -63 -159 -141 l-37 -65 -72 -3 -72 -3 0 246 0
245 -85 0 -85 0 0 -535 0 -535 254 0 c139 0 267 -3 283 -6 l30 -6 -1 89 -1 88
79 2 c66 1 89 7 142 33 70 34 107 73 154 162 18 33 38 59 48 59 9 1 100 1 202
-1 l186 -2 2 75 c3 61 0 77 -13 84 -12 7 -23 47 -40 137 -25 136 -50 193 -106
240 -80 68 -220 116 -459 157 -96 17 -181 35 -187 41 -18 14 -19 958 -2 958
27 0 89 -24 115 -45 27 -22 28 -26 34 -140 l7 -119 80 -76 c112 -108 111 -108
241 -116 103 -6 117 -9 153 -36 50 -36 59 -59 65 -177 9 -164 5 -154 117 -269
56 -57 111 -109 122 -115 11 -6 101 -16 200 -23 99 -7 242 -18 318 -24 76 -7
141 -10 144 -7 9 9 -523 549 -1496 1521 -468 468 -851 853 -851 858 0 17 82
60 104 54 21 -5 2247 -2223 2254 -2246 8 -24 17 -7 15 28 -15 222 -37 440 -45
457 -6 11 -480 490 -1054 1065 -646 647 -1044 1052 -1044 1064 0 10 20 62 44
115 91 200 110 288 103 483 -6 170 -26 256 -92 395 -55 118 -111 197 -206 291
-130 130 -283 218 -462 268 -78 22 -117 27 -262 30 -120 2 -192 -1 -246 -11z
m-66 -450 c143 -37 225 -141 226 -286 3 -258 -329 -381 -504 -186 -55 60 -91
164 -81 229 18 112 123 220 241 249 46 11 56 10 118 -6z m413 -882 c21 -26 33
-44 27 -40 -14 9 -77 87 -70 87 3 0 22 -21 43 -47z m75 -90 c13 -16 12 -17 -3
-4 -17 13 -22 21 -14 21 2 0 10 -8 17 -17z m50 -60 c13 -16 12 -17 -3 -4 -10
7 -18 15 -18 17 0 8 8 3 21 -13z m120 -140 c13 -16 12 -17 -3 -4 -10 7 -18 15
-18 17 0 8 8 3 21 -13z m49 -58 c13 -14 21 -25 18 -25 -2 0 -15 11 -28 25 -13
14 -21 25 -18 25 2 0 15 -11 28 -25z m41 -52 c13 -16 12 -17 -3 -4 -10 7 -18
15 -18 17 0 8 8 3 21 -13z m49 -58 c13 -14 21 -25 18 -25 -2 0 -15 11 -28 25
-13 14 -21 25 -18 25 2 0 15 -11 28 -25z m41 -52 c13 -16 12 -17 -3 -4 -10 7
-18 15 -18 17 0 8 8 3 21 -13z m-1153 -1595 l529 -527 -35 -33 c-59 -57 -119
-133 -98 -125 13 5 17 3 13 -7 -3 -7 0 -20 6 -27 7 -8 0 -4 -14 9 -14 12 -30
22 -36 22 -6 0 -159 151 -341 335 -182 184 -332 335 -335 335 -2 0 -4 -64 -6
-142 -2 -96 -6 -145 -14 -150 -7 -5 -57 -7 -112 -6 l-100 3 -3 423 c-1 267 1
422 7 420 6 -1 248 -240 539 -530z m1815 266 l37 -51 0 -442 c0 -242 -3 -441
-7 -441 -5 0 -55 28 -113 63 l-105 62 -5 265 -5 265 -330 -335 c-181 -184
-335 -335 -342 -335 -11 0 -163 142 -163 152 0 3 214 219 476 480 l476 474 22
-53 c12 -29 39 -76 59 -104z m-369 -703 c3 -5 -1 -14 -8 -20 -16 -13 -32 2
-21 19 8 12 22 13 29 1z m-1764 -456 l0 -425 -115 0 -115 0 0 425 0 425 115 0
115 0 0 -425z m-390 271 l0 -145 -332 -3 c-183 -2 -335 -1 -338 1 -7 5 115
117 185 169 60 44 158 98 205 113 14 4 82 8 153 8 l127 1 0 -144z m1449 -106
c39 -45 71 -84 71 -88 0 -4 -35 -42 -78 -85 l-79 -78 -51 46 c-28 25 -66 64
-83 87 l-32 40 79 78 c43 43 84 79 90 79 6 1 43 -35 83 -79z m-1454 -395 l0
-190 -331 -3 -332 -2 -31 54 c-45 80 -85 122 -149 153 -76 38 -200 40 -277 5
-81 -37 -175 -143 -175 -197 0 -12 -14 -15 -75 -15 l-75 0 0 115 c0 136 11
165 70 195 48 25 236 58 391 69 63 5 310 8 549 7 l435 -1 0 -190z m-915 -143
c71 -35 104 -122 75 -198 -23 -61 -71 -96 -138 -102 -57 -4 -102 18 -139 68
-48 65 -24 188 44 230 41 25 111 26 158 2z m3790 -4 c57 -39 75 -72 75 -138 0
-66 -18 -99 -75 -137 -58 -40 -155 -23 -200 35 -46 58 -46 136 1 203 41 59
140 77 199 37z m-413 -217 c28 -30 84 -126 99 -171 8 -23 11 -52 8 -67 -6 -24
-9 -25 -58 -19 -28 3 -79 6 -113 6 l-63 0 0 135 0 135 55 0 c41 0 59 -5 72
-19z m-2067 -120 l0 -129 -97 -7 c-60 -5 -103 -4 -112 2 -13 8 -17 35 -19 137
l-3 126 116 0 115 0 0 -129z"/>
<path d="M13580 7079 c-35 -15 -59 -38 -83 -84 -19 -36 -21 -56 -22 -215 0
-196 7 -222 75 -267 31 -22 43 -23 217 -23 139 0 191 3 211 14 41 21 82 69 97
112 l13 39 84 3 c82 3 86 4 118 37 19 19 39 35 45 35 6 0 29 -13 51 -30 49
-37 66 -37 97 0 14 17 33 30 43 30 9 0 32 -13 51 -30 55 -49 83 -42 167 40
l71 70 -49 42 c-92 81 -77 78 -392 78 l-282 0 -25 47 c-13 27 -41 61 -62 78
l-37 30 -181 2 c-106 1 -192 -2 -207 -8z m101 -206 c7 -21 10 -69 7 -116 -4
-68 -8 -83 -28 -99 -28 -23 -35 -23 -60 2 -19 19 -20 31 -18 128 3 100 4 107
26 118 35 17 60 6 73 -33z"/>
<path d="M13455 5663 c-272 -32 -491 -174 -596 -387 -105 -216 -105 -434 1
-650 75 -154 175 -251 335 -326 219 -103 500 -98 725 12 67 33 103 60 171 128
74 72 93 99 132 180 74 155 94 307 61 468 -42 205 -129 336 -298 449 -149 100
-350 148 -531 126z m190 -298 c128 -34 203 -96 261 -219 107 -225 25 -500
-176 -590 -108 -49 -203 -54 -329 -20 -242 68 -354 381 -226 635 83 163 278
244 470 194z"/>
<path d="M16289 5660 c-165 -23 -307 -95 -429 -219 -94 -94 -153 -196 -186
-321 -27 -100 -25 -274 5 -370 39 -126 97 -226 181 -311 64 -65 91 -84 180
-127 117 -56 156 -67 289 -82 249 -28 513 64 665 232 66 73 139 213 162 313
59 259 -38 561 -230 714 -177 141 -407 203 -637 171z m277 -307 c159 -61 252
-201 261 -393 4 -80 2 -105 -17 -159 -28 -85 -83 -165 -139 -207 -163 -119
-436 -98 -562 44 -92 104 -133 256 -105 390 39 186 149 309 306 342 68 14 197
5 256 -17z"/>
<path d="M19220 5656 c-197 -42 -322 -121 -391 -248 -33 -61 -34 -67 -34 -173
1 -133 21 -190 95 -259 66 -61 97 -75 339 -151 277 -86 317 -101 341 -132 22
-28 26 -82 10 -114 -30 -55 -181 -87 -333 -70 -138 16 -236 50 -344 122 l-33
21 -21 -49 c-11 -26 -36 -84 -56 -127 l-36 -80 34 -28 c68 -57 276 -122 444
-137 218 -21 421 22 546 117 78 58 114 114 135 210 32 143 1 275 -81 351 -79
73 -172 111 -422 171 -167 40 -255 76 -273 109 -15 29 -12 103 5 128 24 35
119 65 220 70 112 6 205 -13 316 -62 44 -20 82 -35 84 -33 7 7 105 238 105
247 0 14 -157 80 -242 102 -107 27 -315 34 -408 15z"/>
<path d="M17668 5643 l-278 -3 0 -695 0 -695 170 0 170 0 0 200 0 200 128 0
c70 0 132 -4 138 -8 11 -8 116 -155 213 -299 l62 -93 185 0 185 0 -74 108
c-41 59 -111 160 -156 225 -45 65 -79 123 -75 128 3 5 24 19 46 30 105 53 193
184 225 332 14 67 15 89 5 150 -25 150 -123 277 -268 350 -141 71 -192 76
-676 70z m446 -294 c105 -39 168 -146 151 -255 -8 -57 -64 -122 -133 -156 -42
-20 -65 -23 -224 -26 l-178 -4 0 231 0 231 165 0 c141 0 172 -3 219 -21z"/>
<path d="M8250 4945 l0 -695 158 0 157 0 -3 401 c-1 231 1 398 6 395 5 -3 91
-142 191 -308 100 -167 188 -312 196 -322 11 -15 31 -20 88 -24 41 -2 82 0 91
5 15 8 49 65 279 460 62 106 115 193 120 193 4 0 7 -180 7 -400 l0 -400 155 0
155 0 0 695 0 695 -148 0 -149 0 -90 -152 c-50 -84 -157 -265 -238 -403 -81
-137 -153 -256 -159 -262 -9 -10 -19 0 -45 45 -19 31 -87 140 -151 242 -64
102 -163 263 -221 358 l-104 172 -147 0 -148 0 0 -695z"/>
<path d="M10957 5483 c-4 -87 -7 -400 -7 -695 l0 -538 160 0 160 0 2 400 3
400 64 -107 c325 -548 320 -540 359 -547 106 -17 153 -3 183 56 27 55 291 516
321 563 13 19 26 35 31 35 4 0 7 -180 7 -400 l0 -400 155 0 155 0 0 695 0 695
-147 0 -148 0 -130 -217 c-71 -120 -168 -283 -215 -363 -92 -156 -152 -250
-160 -250 -6 0 -39 53 -133 215 -39 66 -122 202 -184 303 -63 101 -130 213
-150 248 l-35 64 -142 0 -143 0 -6 -157z"/>
<path d="M14370 5505 l0 -135 220 0 220 0 0 -560 0 -560 159 0 158 0 7 77 c3
42 6 294 6 560 l0 483 220 0 220 0 0 83 c0 45 -3 106 -6 135 l-7 52 -598 0
-599 0 0 -135z"/>
<path d="M10112 4828 l3 -123 290 0 290 0 0 120 0 120 -293 3 -293 2 3 -122z"/>
</g>
</svg>
